<svg width="160" height="48" viewBox="0 0 160 48" fill="none" xmlns="http://www.w3.org/2000/svg">
<path d="M10.331 18.7859H11.3348V19.7897V35.2277L15.8717 30.6957V14.2539H0V46.5625L4.53199 42.0306V19.7897V18.7859H5.53585H10.331Z" fill="#404040"/>
<path d="M28.2052 36.6653H29.209V37.6691V42.4594V43.4633H28.2052H8.27417L3.74219 48.0001L33.741 47.9952V32.1284H19.609L15.0722 36.6653H28.2052Z" fill="#404040"/>
<path d="M43.4675 18.0499V19.0537H42.4637H32.6882L28.1562 23.5857H47.9995V3.74243L43.4675 8.27442V18.0499Z" fill="#404040"/>
<path d="M42.0303 4.53198L46.5623 0H24.4141V22.1482L28.946 17.6163V5.53584V4.53198H29.9499H42.0303Z" fill="#404040"/>
<path d="M82.736 15.772V32.5H80.552V24.916H72.032V32.5H69.848V15.772H72.032V23.116H80.552V15.772H82.736ZM92.2012 32.716C90.9692 32.716 89.8492 32.436 88.8412 31.876C87.8492 31.316 87.0652 30.524 86.4892 29.5C85.9292 28.46 85.6492 27.26 85.6492 25.9C85.6492 24.556 85.9372 23.372 86.5132 22.348C87.1052 21.308 87.9052 20.516 88.9132 19.972C89.9212 19.412 91.0492 19.132 92.2972 19.132C93.5452 19.132 94.6732 19.412 95.6812 19.972C96.6892 20.516 97.4812 21.3 98.0572 22.324C98.6492 23.348 98.9452 24.54 98.9452 25.9C98.9452 27.26 98.6412 28.46 98.0332 29.5C97.4412 30.524 96.6332 31.316 95.6092 31.876C94.5852 32.436 93.4492 32.716 92.2012 32.716ZM92.2012 30.796C92.9852 30.796 93.7212 30.612 94.4092 30.244C95.0972 29.876 95.6492 29.324 96.0652 28.588C96.4972 27.852 96.7132 26.956 96.7132 25.9C96.7132 24.844 96.5052 23.948 96.0892 23.212C95.6732 22.476 95.1292 21.932 94.4572 21.58C93.7852 21.212 93.0572 21.028 92.2732 21.028C91.4732 21.028 90.7372 21.212 90.0652 21.58C89.4092 21.932 88.8812 22.476 88.4812 23.212C88.0812 23.948 87.8812 24.844 87.8812 25.9C87.8812 26.972 88.0732 27.876 88.4572 28.612C88.8572 29.348 89.3852 29.9 90.0412 30.268C90.6972 30.62 91.4172 30.796 92.2012 30.796ZM117.633 19.108C118.657 19.108 119.569 19.324 120.369 19.756C121.169 20.172 121.801 20.804 122.265 21.652C122.729 22.5 122.961 23.532 122.961 24.748V32.5H120.801V25.06C120.801 23.748 120.473 22.748 119.817 22.06C119.177 21.356 118.305 21.004 117.201 21.004C116.065 21.004 115.161 21.372 114.489 22.108C113.817 22.828 113.481 23.876 113.481 25.252V32.5H111.321V25.06C111.321 23.748 110.993 22.748 110.337 22.06C109.697 21.356 108.825 21.004 107.721 21.004C106.585 21.004 105.681 21.372 105.009 22.108C104.337 22.828 104.001 23.876 104.001 25.252V32.5H101.817V19.348H104.001V21.244C104.433 20.556 105.009 20.028 105.729 19.66C106.465 19.292 107.273 19.108 108.153 19.108C109.257 19.108 110.233 19.356 111.081 19.852C111.929 20.348 112.561 21.076 112.977 22.036C113.345 21.108 113.953 20.388 114.801 19.876C115.649 19.364 116.593 19.108 117.633 19.108ZM138.543 25.42C138.543 25.836 138.519 26.276 138.471 26.74H127.959C128.039 28.036 128.479 29.052 129.279 29.788C130.095 30.508 131.079 30.868 132.231 30.868C133.175 30.868 133.959 30.652 134.583 30.22C135.223 29.772 135.671 29.18 135.927 28.444H138.279C137.927 29.708 137.223 30.74 136.167 31.54C135.111 32.324 133.799 32.716 132.231 32.716C130.983 32.716 129.863 32.436 128.871 31.876C127.895 31.316 127.127 30.524 126.567 29.5C126.007 28.46 125.727 27.26 125.727 25.9C125.727 24.54 125.999 23.348 126.543 22.324C127.087 21.3 127.847 20.516 128.823 19.972C129.815 19.412 130.951 19.132 132.231 19.132C133.479 19.132 134.583 19.404 135.543 19.948C136.503 20.492 137.239 21.244 137.751 22.204C138.279 23.148 138.543 24.22 138.543 25.42ZM136.287 24.964C136.287 24.132 136.103 23.42 135.735 22.828C135.367 22.22 134.863 21.764 134.223 21.46C133.599 21.14 132.903 20.98 132.135 20.98C131.031 20.98 130.087 21.332 129.303 22.036C128.535 22.74 128.095 23.716 127.983 24.964H136.287ZM143.61 14.74V32.5H141.426V14.74H143.61ZM158.66 19.348L150.74 38.692H148.484L151.076 32.356L145.772 19.348H148.196L152.324 30.004L156.404 19.348H158.66Z" fill="#404040"/>
</svg>
