<svg width="158" height="48" viewBox="0 0 158 48" fill="none" xmlns="http://www.w3.org/2000/svg">
<path d="M25.5725 10.4318L30.6064 19.152C31.1756 19.1404 31.7448 19.1365 32.3217 19.1365C33.7932 19.1365 35.2491 19.1714 36.678 19.2333L25.5725 0L13.3711 21.1346C15.4892 20.6505 17.739 20.2478 20.0894 19.9303L25.5725 10.4318ZM16.5347 18.8616L25.5725 3.21007L33.8474 17.545C33.3363 17.5373 32.829 17.5334 32.3179 17.5334C32.0546 17.5334 31.7913 17.5334 31.5241 17.5373L26.9587 9.6302L25.5686 7.22168L24.1785 9.6302L19.0865 18.4511C18.2269 18.575 17.375 18.7106 16.5347 18.8616Z" fill="#404040"/>
<path d="M18.0871 48C11.7948 45.2352 7.9458 41.5334 7.9458 37.4676C7.9458 36.1123 8.37175 34.7996 9.1733 33.5489H44.941L38.4241 22.2652C40.9023 22.06 43.4696 21.9516 46.0988 21.9516C49.6419 21.9516 53.0688 22.1491 56.3214 22.5169C56.1356 22.455 55.942 22.3969 55.7484 22.3388C55.9381 22.3969 56.1317 22.455 56.3214 22.5169C56.5383 22.5402 56.7551 22.5673 56.9759 22.5944C56.4028 22.4472 55.8181 22.3117 55.2256 22.1762C49.9129 20.9913 43.7987 20.3137 37.2934 20.3059C37.2546 20.3059 37.2159 20.3059 37.1772 20.3059C35.698 20.3059 34.2343 20.3408 32.8016 20.4105C32.3214 20.4337 31.849 20.4608 31.3766 20.4879C26.8422 20.7706 22.5828 21.3863 18.7493 22.2652C18.4163 22.3427 18.091 22.4201 17.7658 22.4976C15.4928 23.0552 13.3824 23.7096 11.4657 24.4453C4.39885 27.1559 6.19611e-06 30.9777 6.19611e-06 35.2101C-0.00773825 40.6389 7.24493 45.394 18.0871 48ZM32.7784 22.9197L35.9032 28.3291H15.2527C19.6283 25.8896 25.7077 23.9884 32.7784 22.9197Z" fill="#404040"/>
<path d="M81.0086 17.548V23.14H87.1046V24.94H81.0086V30.7H87.8246V32.5H78.8246V15.748H87.8246V17.548H81.0086ZM90.3133 25.876C90.3133 24.532 90.5853 23.356 91.1293 22.348C91.6733 21.324 92.4173 20.532 93.3613 19.972C94.3213 19.412 95.3853 19.132 96.5533 19.132C97.7053 19.132 98.7053 19.38 99.5533 19.876C100.401 20.372 101.033 20.996 101.449 21.748V19.348H103.657V32.5H101.449V30.052C101.017 30.82 100.369 31.46 99.5053 31.972C98.6573 32.468 97.6653 32.716 96.5293 32.716C95.3613 32.716 94.3053 32.428 93.3613 31.852C92.4173 31.276 91.6733 30.468 91.1293 29.428C90.5853 28.388 90.3133 27.204 90.3133 25.876ZM101.449 25.9C101.449 24.908 101.249 24.044 100.849 23.308C100.449 22.572 99.9053 22.012 99.2173 21.628C98.5453 21.228 97.8013 21.028 96.9853 21.028C96.1693 21.028 95.4253 21.22 94.7533 21.604C94.0813 21.988 93.5453 22.548 93.1453 23.284C92.7453 24.02 92.5453 24.884 92.5453 25.876C92.5453 26.884 92.7453 27.764 93.1453 28.516C93.5453 29.252 94.0813 29.82 94.7533 30.22C95.4253 30.604 96.1693 30.796 96.9853 30.796C97.8013 30.796 98.5453 30.604 99.2173 30.22C99.9053 29.82 100.449 29.252 100.849 28.516C101.249 27.764 101.449 26.892 101.449 25.9ZM109.532 21.484C109.916 20.732 110.46 20.148 111.164 19.732C111.884 19.316 112.756 19.108 113.78 19.108V21.364H113.204C110.756 21.364 109.532 22.692 109.532 25.348V32.5H107.348V19.348H109.532V21.484ZM118.965 21.148V28.9C118.965 29.54 119.101 29.996 119.373 30.268C119.645 30.524 120.117 30.652 120.789 30.652H122.397V32.5H120.429C119.213 32.5 118.301 32.22 117.693 31.66C117.085 31.1 116.781 30.18 116.781 28.9V21.148H115.077V19.348H116.781V16.036H118.965V19.348H122.397V21.148H118.965ZM131.571 19.108C132.563 19.108 133.459 19.324 134.259 19.756C135.059 20.172 135.683 20.804 136.131 21.652C136.595 22.5 136.827 23.532 136.827 24.748V32.5H134.667V25.06C134.667 23.748 134.339 22.748 133.683 22.06C133.027 21.356 132.131 21.004 130.995 21.004C129.843 21.004 128.923 21.364 128.235 22.084C127.563 22.804 127.227 23.852 127.227 25.228V32.5H125.043V14.74H127.227V21.22C127.659 20.548 128.251 20.028 129.003 19.66C129.771 19.292 130.627 19.108 131.571 19.108ZM142.579 14.74V32.5H140.395V14.74H142.579ZM157.629 19.348L149.709 38.692H147.453L150.045 32.356L144.741 19.348H147.165L151.293 30.004L155.373 19.348H157.629Z" fill="#404040"/>
</svg>
