<svg width="175" height="49" viewBox="0 0 175 49" fill="none" xmlns="http://www.w3.org/2000/svg">
<path d="M0.277999 20.3443L0.273787 20.3654L0.269575 20.3948C0.261151 20.437 0.256939 20.4791 0.252727 20.517V20.5212V20.5254C0.252727 20.5338 0.252727 20.5423 0.248514 20.5507C0.244302 20.576 0.24009 20.6012 0.24009 20.6265L0.231666 20.6897V20.7023L0.227454 20.7234V20.7318V20.7402V20.7444L0.214818 20.7655V20.7824V20.7866L0.210605 20.795C0.202181 20.875 0.189545 20.9551 0.181121 21.0351C0.172696 21.1067 0.164272 21.1783 0.155848 21.2499C0.151636 21.2794 0.151636 21.3047 0.147424 21.3299V21.3341V21.3384C0.139 21.4268 0.126363 21.511 0.117939 21.5995C0.109515 21.6627 0.105303 21.7301 0.101091 21.7975V21.8059L0.0926664 21.8691C0.0884543 21.8943 0.0884543 21.9196 0.0842422 21.9449C0.0842422 21.9702 0.0842422 21.9996 0.0800301 22.0249C0.0800301 22.0376 0.075818 22.0544 0.075818 22.067C0.075818 22.0881 0.0716059 22.1092 0.0716059 22.1302C0.0716059 22.1555 0.0673938 22.1808 0.0673938 22.2103C0.0673938 22.2229 0.0673937 22.2355 0.0631816 22.2482C0.0547574 22.3366 0.0505453 22.4293 0.0421211 22.5388V22.543C0.037909 22.5893 0.037909 22.6357 0.0336969 22.6778C0.0294848 22.7241 0.0294848 22.7747 0.0252727 22.821V22.8252V22.8294V22.8378V22.8421C0.0252727 22.8463 0.0252727 22.8505 0.0252727 22.8589C0.0252727 22.8715 0.0252727 22.88 0.0252727 22.8926V22.9052V22.9221C0.0210605 22.9768 0.0210606 23.0274 0.0168484 23.0821C0.0168484 23.1032 0.0168484 23.1285 0.0126363 23.1495C0.00842421 23.2464 0.00421211 23.3391 0.00421211 23.4318C0.00421211 23.4444 0.00421211 23.4612 0.00421211 23.4781V23.5118C0.00421211 23.5876 0 23.6634 0 23.7434V23.7856V23.8066V23.8867C0 23.9119 0 23.933 0 23.9583C0 23.9751 0 23.992 0 24.0088C0 24.0257 0 24.0425 0 24.0593C0 24.0804 0 24.1057 0 24.1267V24.2026V24.2657C0.0673937 28.8316 1.89545 33.1153 5.15141 36.3207C8.40737 39.5345 12.7206 41.3036 17.2949 41.3036C18.0236 41.3036 18.7439 41.2572 19.4557 41.1688C19.7801 41.1267 20.1002 41.0845 20.4203 41.0256C18.0531 39.5935 16.006 37.677 14.397 35.373C13.8157 34.539 13.2976 33.6629 12.8554 32.7615C12.7543 32.5593 12.6616 32.3529 12.5689 32.1465C12.5605 32.1255 12.5479 32.1002 12.5394 32.0791C11.419 29.5561 10.8335 26.8225 10.8335 24.0088C10.8335 19.9189 12.0677 15.989 14.4012 12.6446C14.9361 11.878 15.5216 11.1536 16.1534 10.4754C18.2005 8.2683 20.7109 6.55819 23.5415 5.46306C24.4007 5.1303 25.2727 4.86073 26.1656 4.65013C27.6483 4.30052 29.1731 4.12783 30.7189 4.12783C34.3329 4.12783 37.8037 5.08818 40.8364 6.88674L40.8322 6.88252C40.8069 6.85725 40.7732 6.82777 40.7479 6.79828C40.71 6.76037 40.6721 6.72668 40.6342 6.68877C40.6216 6.67613 40.6089 6.66771 40.6005 6.65507L40.5921 6.64665L40.5879 6.64244L40.5837 6.63401C40.55 6.60453 40.5121 6.57083 40.4784 6.53713C40.4405 6.50344 40.4068 6.46974 40.3689 6.43183L40.3646 6.42762L40.3604 6.42341L40.352 6.41498C40.3436 6.41077 40.3394 6.40235 40.3309 6.39814C40.2888 6.36023 40.2467 6.31811 40.2046 6.2802L40.1962 6.27177L40.1414 6.22123C40.133 6.2128 40.1246 6.20438 40.1119 6.19596C40.0487 6.1412 39.9898 6.08644 39.9308 6.03169C39.8592 5.9685 39.796 5.90954 39.7286 5.85478C39.7076 5.83793 39.6865 5.81687 39.6612 5.80002C39.6149 5.76211 39.5686 5.71999 39.5222 5.68208L39.4296 5.60627L39.379 5.56415V5.55993L39.3411 5.53045L39.32 5.5136C39.2653 5.46727 39.2105 5.42515 39.1558 5.37881L39.1473 5.37039L39.1431 5.36618L39.1389 5.36197L39.1305 5.35775C39.0884 5.32406 39.0505 5.29036 39.0083 5.26088L39.0041 5.25666H38.9999H38.9957C38.8651 5.15136 38.7303 5.04606 38.5956 4.94497L38.5913 4.94076L38.5871 4.93655C38.5492 4.90706 38.5155 4.88179 38.4776 4.85231L38.4313 4.81861L38.406 4.79755C38.4018 4.79334 38.3934 4.78912 38.3892 4.78491L38.385 4.7807L38.3807 4.77649L38.3765 4.77228L38.3681 4.76806L38.2923 4.71331L38.2628 4.69225L38.1575 4.61643C38.1449 4.60801 38.1364 4.59958 38.1238 4.59116C38.1027 4.57852 38.0859 4.56167 38.0648 4.54904L38.0227 4.51955H38.0185H38.0143C37.9722 4.49007 37.9343 4.46058 37.8921 4.4311C37.8837 4.42267 37.8711 4.41846 37.8626 4.41004L37.85 4.40161L37.8416 4.39319C37.7405 4.32159 37.6436 4.25419 37.5425 4.18259H37.5383H37.5341C37.4878 4.1531 37.4457 4.11941 37.3993 4.08992C37.3867 4.0815 37.3783 4.07307 37.3656 4.06886L37.3572 4.05201C37.2898 4.00989 37.2224 3.96356 37.155 3.91723C37.1508 3.91723 37.1466 3.91301 37.1424 3.91301L37.1382 3.9088L37.1297 3.90459C37.1171 3.89617 37.1003 3.88774 37.0876 3.87511C37.0371 3.84141 36.9907 3.81192 36.9402 3.78244L36.9318 3.77823L36.9234 3.77402C36.8517 3.72768 36.7759 3.68135 36.7043 3.63502L36.6959 3.63081L36.6875 3.62238C36.6117 3.57605 36.5358 3.5255 36.46 3.48338L36.3379 3.41178C36.3168 3.39072 36.2957 3.38229 36.2789 3.36966C36.2578 3.35702 36.2326 3.34017 36.2073 3.32754H36.2031L36.1989 3.32332C36.1862 3.3149 36.1694 3.30648 36.1567 3.29805C36.102 3.26435 36.0472 3.23487 35.9925 3.20117L35.9504 3.1759C35.9293 3.16327 35.9124 3.15484 35.8956 3.1422C35.8451 3.11272 35.7945 3.08324 35.744 3.05375C35.7397 3.04954 35.7355 3.04954 35.7271 3.04533C35.3859 2.85578 35.0405 2.67045 34.6909 2.49776C34.6825 2.49355 34.6741 2.48933 34.6657 2.48512H34.6614H34.6572H34.653C34.5772 2.443 34.5014 2.4093 34.4214 2.3714L34.215 2.27452C34.2108 2.27031 34.2023 2.27031 34.1981 2.26609C34.1939 2.26609 34.1897 2.26188 34.1855 2.26188L34.1813 2.25767H34.1771C33.9328 2.14394 33.7095 2.04285 33.4947 1.95019L33.4905 1.94598L33.4821 1.94176H33.4778H33.4736C33.4231 1.91649 33.3683 1.89543 33.3178 1.87437L33.2967 1.86595L33.2799 1.85752H33.2757L33.183 1.81961C33.1493 1.80698 33.1156 1.79434 33.0819 1.77749C33.0651 1.76907 33.0524 1.76486 33.0356 1.76065C32.8039 1.66798 32.6144 1.59216 32.4417 1.52898L32.3364 1.49107L32.3237 1.48686L32.2142 1.44474C31.9194 1.33944 31.6161 1.23414 31.3086 1.13726H31.3044H31.3002C31.296 1.13726 31.2918 1.13305 31.2833 1.13305C31.2244 1.1162 31.1654 1.09514 31.1064 1.07829C31.0475 1.06144 30.9885 1.04038 30.9253 1.02353C30.8916 1.0109 30.8537 1.00247 30.82 0.989837C30.6852 0.951928 30.5589 0.914019 30.4409 0.880323H30.4367H30.4325H30.4283C30.4072 0.863475 30.3904 0.859262 30.3735 0.85505C30.3482 0.846626 30.323 0.842414 30.2935 0.83399L30.2766 0.829778L30.2514 0.821354C29.9986 0.753961 29.7417 0.694992 29.4848 0.631811C29.3331 0.598114 29.1815 0.564417 29.0299 0.530721C28.7729 0.475964 28.516 0.421207 28.2548 0.374874C28.158 0.358026 28.0611 0.341178 27.9642 0.324329H27.96H27.9558H27.9516C27.8547 0.307481 27.7578 0.290633 27.6609 0.277997C27.6146 0.269573 27.5725 0.26536 27.5261 0.256936C27.4714 0.248512 27.4124 0.240088 27.3577 0.231664C27.0797 0.193755 26.8016 0.160059 26.5237 0.130574C25.9845 0.0758173 25.4454 0.0379086 24.902 0.0168483C24.6071 0.00842414 24.3039 0 24.0048 0C23.4951 0 22.9897 0.0168483 22.48 0.0505449C22.4253 0.0547569 22.3747 0.0547569 22.32 0.058969C21.7598 0.0968776 21.1995 0.155847 20.6478 0.231664C20.5467 0.2443 20.4498 0.261148 20.3487 0.273785C20.3445 0.273785 20.3445 0.273785 20.3403 0.273785H20.3361L0.277999 20.3359V20.3443Z" fill="#404040"/>
<path d="M47.7345 27.6397L47.7387 27.6229L47.7429 27.6018C47.7471 27.5681 47.7513 27.5344 47.7555 27.5007V27.4923V27.4797L47.7598 27.467C47.7682 27.4249 47.7724 27.3786 47.7808 27.3323L47.785 27.3028L47.7892 27.2733C47.7934 27.2607 47.7935 27.2438 47.7977 27.2312L47.8145 27.0795L47.8272 26.9742C47.8398 26.8731 47.8524 26.7805 47.8608 26.6878V26.6752C47.8693 26.5867 47.8819 26.5025 47.8861 26.4182C47.8945 26.3466 47.8988 26.2792 47.9072 26.2161V26.2118L47.9156 26.1487C47.9198 26.1023 47.924 26.056 47.9282 26.0097V25.9928V25.976C47.9367 25.917 47.9367 25.8538 47.9409 25.7949V25.7864V25.7696C47.9493 25.6811 47.9535 25.5885 47.9619 25.4832V25.4747C47.9704 25.3821 47.9746 25.2894 47.9788 25.1967V25.1715V25.1336V25.0956C47.983 25.0198 47.9872 24.9398 47.9872 24.864C47.9914 24.7587 47.9956 24.6618 47.9956 24.5607V24.5481V24.5017C47.9956 24.4301 47.9998 24.3585 47.9998 24.2869V24.2069V24.1943C47.9998 24.1311 47.9998 24.0721 47.9998 24.0089C47.9998 23.9458 47.9998 23.8784 47.9998 23.8152V23.811V23.7478C47.9324 19.1819 46.1044 14.9024 42.8527 11.6928C39.5967 8.47903 35.2835 6.70996 30.7049 6.70996C29.6477 6.70996 28.6031 6.80263 27.5795 6.99217C29.9467 8.42427 31.998 10.3408 33.6029 12.6448C35.9364 15.9892 37.1705 19.919 37.1705 24.0089C37.1705 28.0989 35.9364 32.0287 33.6029 35.3731C31.3241 38.6375 28.165 41.1226 24.4626 42.5547C22.1796 43.4392 19.7661 43.8899 17.2894 43.8899C13.6754 43.8899 10.2046 42.9296 7.17188 41.1352L7.17609 41.1394L7.18872 41.1521L7.20136 41.1647C7.214 41.1815 7.23084 41.1942 7.24348 41.2068L7.28981 41.2532C7.32772 41.2911 7.36563 41.329 7.40775 41.3669L7.41618 41.3753L7.4246 41.3837C7.48778 41.4469 7.5636 41.5185 7.63942 41.5859L7.65206 41.5943L7.66048 41.6028C7.71102 41.6491 7.75736 41.6954 7.8079 41.7418L7.81212 41.746L7.81633 41.7502C7.90478 41.8302 7.98902 41.9102 8.08169 41.9861L8.0859 41.9903L8.09011 41.9945C8.14908 42.045 8.20805 42.0998 8.26702 42.1503L8.27966 42.1587L8.31757 42.1924H8.32178L8.49448 42.3399L8.52817 42.3694L8.5366 42.3778C8.58293 42.4157 8.62926 42.4536 8.6756 42.4915L8.69245 42.5041L8.70929 42.521C8.75142 42.5547 8.79354 42.5926 8.84408 42.6305L8.86093 42.6431L8.87778 42.6558C8.91569 42.6853 8.94938 42.7147 8.98308 42.7442L8.99572 42.7527L9.00414 42.7611C9.13051 42.8664 9.26529 42.9675 9.40008 43.0686C9.42956 43.0938 9.45905 43.1149 9.48853 43.1359C9.52223 43.1612 9.55593 43.1865 9.58963 43.2118C9.61069 43.2244 9.62753 43.237 9.64438 43.2539L9.67808 43.2792C9.73284 43.3213 9.78338 43.3592 9.83814 43.4013L9.88869 43.4392C9.91396 43.4603 9.94344 43.4771 9.96871 43.4982L9.97714 43.5066L9.98978 43.515C10.0277 43.5445 10.0698 43.574 10.1077 43.6035L10.1498 43.633C10.2467 43.7046 10.3478 43.772 10.4489 43.8436L10.4573 43.8478L10.4657 43.8562C10.5079 43.8857 10.5542 43.9152 10.6005 43.9447L10.6342 43.9657L10.7437 44.0373L10.8617 44.1174C10.9207 44.1553 10.9838 44.1974 11.047 44.2353C11.1102 44.2774 11.1734 44.3153 11.2323 44.3532H11.384L11.6578 44.6144C11.6999 44.6397 11.742 44.6649 11.7841 44.6902C11.8684 44.7407 11.9526 44.7871 12.0326 44.8334L12.0411 44.8376L12.0495 44.8418C12.1169 44.8797 12.1801 44.9177 12.2475 44.9556C12.6013 45.1577 12.9593 45.3473 13.3216 45.5242C13.4016 45.5621 13.4816 45.6042 13.5574 45.6421C13.5701 45.6506 13.5827 45.6548 13.5911 45.659C13.6669 45.6927 13.7386 45.7306 13.8144 45.7643C14.0418 45.8696 14.2735 45.9749 14.4967 46.0718H14.5009L14.5052 46.076C14.5599 46.1012 14.6189 46.1265 14.6736 46.1476C14.6905 46.156 14.7073 46.1602 14.7284 46.1729C14.8042 46.2023 14.88 46.236 14.9559 46.2655C15.1412 46.3413 15.3392 46.4172 15.5498 46.4972L15.5582 46.5014L15.5666 46.5056C15.6298 46.5309 15.6972 46.5561 15.7604 46.5772L15.7688 46.5814L15.7772 46.5856C16.0847 46.6994 16.388 46.8004 16.6786 46.8931L16.687 46.8973L16.6955 46.9015C16.7544 46.9226 16.8134 46.9394 16.8724 46.9605H16.8808L16.8892 46.9647C16.9777 46.9942 17.0661 47.0195 17.1546 47.049L17.2304 47.07C17.3357 47.0995 17.4452 47.129 17.5505 47.1585C17.6095 47.1753 17.6642 47.188 17.7148 47.2048L17.7274 47.209C18.3887 47.3859 19.0627 47.5376 19.724 47.6555L19.7324 47.6597H19.7408C19.8208 47.6723 19.9093 47.6892 20.0146 47.706H20.023H20.0272C20.1325 47.7229 20.2252 47.7397 20.3052 47.7482H20.3179L20.3305 47.7524C20.4232 47.7692 20.5158 47.7819 20.6127 47.7945H20.6211C21.7289 47.9461 22.8578 48.0262 23.9782 48.0262C25.1028 48.0262 26.2317 47.9461 27.3395 47.7945L27.3647 47.7903C27.4532 47.7776 27.5416 47.765 27.6301 47.7524L27.6427 47.7482H27.6511L47.7092 27.6903C47.7345 27.6608 47.7345 27.6524 47.7345 27.6397Z" fill="#404040"/>
<path d="M69.032 24.1369C69.032 22.5049 69.4 21.0409 70.136 19.7449C70.872 18.4329 71.872 17.4089 73.136 16.6729C74.416 15.9369 75.832 15.5689 77.384 15.5689C79.208 15.5689 80.8 16.0089 82.16 16.8889C83.52 17.7689 84.512 19.0169 85.136 20.6329H82.52C82.056 19.6249 81.384 18.8489 80.504 18.3049C79.64 17.7609 78.6 17.4889 77.384 17.4889C76.216 17.4889 75.168 17.7609 74.24 18.3049C73.312 18.8489 72.584 19.6249 72.056 20.6329C71.528 21.6249 71.264 22.7929 71.264 24.1369C71.264 25.4649 71.528 26.6329 72.056 27.6409C72.584 28.6329 73.312 29.4009 74.24 29.9449C75.168 30.4889 76.216 30.7609 77.384 30.7609C78.6 30.7609 79.64 30.4969 80.504 29.9689C81.384 29.4249 82.056 28.6489 82.52 27.6409H85.136C84.512 29.2409 83.52 30.4809 82.16 31.3609C80.8 32.2249 79.208 32.6569 77.384 32.6569C75.832 32.6569 74.416 32.2969 73.136 31.5769C71.872 30.8409 70.872 29.8249 70.136 28.5289C69.4 27.2329 69.032 25.7689 69.032 24.1369ZM94.1231 32.7289C92.8911 32.7289 91.7711 32.4489 90.7631 31.8889C89.7711 31.3289 88.9871 30.5369 88.4111 29.5129C87.8511 28.4729 87.5711 27.2729 87.5711 25.9129C87.5711 24.5689 87.8591 23.3849 88.4351 22.3609C89.0271 21.3209 89.8271 20.5289 90.8351 19.9849C91.8431 19.4249 92.9711 19.1449 94.2191 19.1449C95.4671 19.1449 96.5951 19.4249 97.6031 19.9849C98.6111 20.5289 99.4031 21.3129 99.9791 22.3369C100.571 23.3609 100.867 24.5529 100.867 25.9129C100.867 27.2729 100.563 28.4729 99.9551 29.5129C99.3631 30.5369 98.5551 31.3289 97.5311 31.8889C96.5071 32.4489 95.3711 32.7289 94.1231 32.7289ZM94.1231 30.8089C94.9071 30.8089 95.6431 30.6249 96.3311 30.2569C97.0191 29.8889 97.5711 29.3369 97.9871 28.6009C98.4191 27.8649 98.6351 26.9689 98.6351 25.9129C98.6351 24.8569 98.4271 23.9609 98.0111 23.2249C97.5951 22.4889 97.0511 21.9449 96.3791 21.5929C95.7071 21.2249 94.9791 21.0409 94.1951 21.0409C93.3951 21.0409 92.6591 21.2249 91.9871 21.5929C91.3311 21.9449 90.8031 22.4889 90.4031 23.2249C90.0031 23.9609 89.8031 24.8569 89.8031 25.9129C89.8031 26.9849 89.9951 27.8889 90.3791 28.6249C90.7791 29.3609 91.3071 29.9129 91.9631 30.2809C92.6191 30.6329 93.3391 30.8089 94.1231 30.8089ZM105.371 30.7129H111.827V32.5129H102.875V30.7129L109.259 21.1369H102.923V19.3609H111.779V21.1369L105.371 30.7129ZM125.989 19.3609L118.069 38.7049H115.812L118.405 32.3689L113.101 19.3609H115.525L119.653 30.0169L123.733 19.3609H125.989ZM130.368 21.8089C130.816 21.0249 131.472 20.3849 132.336 19.8889C133.2 19.3929 134.184 19.1449 135.288 19.1449C136.472 19.1449 137.536 19.4249 138.48 19.9849C139.424 20.5449 140.168 21.3369 140.712 22.3609C141.256 23.3689 141.528 24.5449 141.528 25.8889C141.528 27.2169 141.256 28.4009 140.712 29.4409C140.168 30.4809 139.416 31.2889 138.456 31.8649C137.512 32.4409 136.456 32.7289 135.288 32.7289C134.152 32.7289 133.152 32.4809 132.288 31.9849C131.44 31.4889 130.8 30.8569 130.368 30.0889V32.5129H128.184V14.7529H130.368V21.8089ZM139.296 25.8889C139.296 24.8969 139.096 24.0329 138.696 23.2969C138.296 22.5609 137.752 22.0009 137.064 21.6169C136.392 21.2329 135.648 21.0409 134.832 21.0409C134.032 21.0409 133.288 21.2409 132.6 21.6409C131.928 22.0249 131.384 22.5929 130.968 23.3449C130.568 24.0809 130.368 24.9369 130.368 25.9129C130.368 26.9049 130.568 27.7769 130.968 28.5289C131.384 29.2649 131.928 29.8329 132.6 30.2329C133.288 30.6169 134.032 30.8089 134.832 30.8089C135.648 30.8089 136.392 30.6169 137.064 30.2329C137.752 29.8329 138.296 29.2649 138.696 28.5289C139.096 27.7769 139.296 26.8969 139.296 25.8889ZM150.811 19.1209C152.411 19.1209 153.707 19.6089 154.699 20.5849C155.691 21.5449 156.187 22.9369 156.187 24.7609V32.5129H154.027V25.0729C154.027 23.7609 153.699 22.7609 153.043 22.0729C152.387 21.3689 151.491 21.0169 150.355 21.0169C149.203 21.0169 148.283 21.3769 147.595 22.0969C146.923 22.8169 146.587 23.8649 146.587 25.2409V32.5129H144.403V19.3609H146.587V21.2329C147.019 20.5609 147.603 20.0409 148.339 19.6729C149.091 19.3049 149.915 19.1209 150.811 19.1209ZM161.938 21.8089C162.386 21.0249 163.042 20.3849 163.906 19.8889C164.77 19.3929 165.754 19.1449 166.858 19.1449C168.042 19.1449 169.106 19.4249 170.05 19.9849C170.994 20.5449 171.738 21.3369 172.282 22.3609C172.826 23.3689 173.098 24.5449 173.098 25.8889C173.098 27.2169 172.826 28.4009 172.282 29.4409C171.738 30.4809 170.986 31.2889 170.026 31.8649C169.082 32.4409 168.026 32.7289 166.858 32.7289C165.722 32.7289 164.722 32.4809 163.858 31.9849C163.01 31.4889 162.37 30.8569 161.938 30.0889V32.5129H159.754V14.7529H161.938V21.8089ZM170.866 25.8889C170.866 24.8969 170.666 24.0329 170.266 23.2969C169.866 22.5609 169.322 22.0009 168.634 21.6169C167.962 21.2329 167.218 21.0409 166.402 21.0409C165.602 21.0409 164.858 21.2409 164.17 21.6409C163.498 22.0249 162.954 22.5929 162.538 23.3449C162.138 24.0809 161.938 24.9369 161.938 25.9129C161.938 26.9049 162.138 27.7769 162.538 28.5289C162.954 29.2649 163.498 29.8329 164.17 30.2329C164.858 30.6169 165.602 30.8089 166.402 30.8089C167.218 30.8089 167.962 30.6169 168.634 30.2329C169.322 29.8329 169.866 29.2649 170.266 28.5289C170.666 27.7769 170.866 26.8969 170.866 25.8889Z" fill="#404040"/>
</svg>
