<svg width="210" height="48" viewBox="0 0 210 48" fill="none" xmlns="http://www.w3.org/2000/svg">
<path d="M19.7849 47.9999L19.7805 47.9911L17.9731 44.8556L3.61923 20.0002H0L16.1613 47.9911L16.1569 47.9999H16.1656H19.7761H19.7849Z" fill="#404040"/>
<path d="M34.2615 47.9999L34.2571 47.9911L32.4496 44.8556L30.6378 41.7245L28.8304 38.589L27.0186 35.4535L25.2112 32.318L18.0958 20.0002H14.4766L23.3993 35.4535L25.2112 38.589L27.0186 41.7245L28.8304 44.8556L30.6378 47.9911L30.6334 47.9999H30.6422H34.2527H34.2615Z" fill="#404040"/>
<path d="M39.6879 44.8556L37.8761 41.7245L36.0687 38.589L34.2569 35.4535L32.4494 32.318L30.6376 29.1869L28.8302 26.0514L25.3341 20.0002H21.7148L27.0184 29.1825L30.6376 35.4535L32.4494 38.589L34.2569 41.7245L36.0687 44.8556L37.8761 47.9911L37.8717 47.9999H37.8805H41.4954H41.4998L41.4954 47.9911L39.6879 44.8556Z" fill="#404040"/>
<path d="M47.4899 0H43.8706L30.6602 22.8852L32.4676 26.0207L47.4899 0Z" fill="#404040"/>
<path d="M23.4039 47.9999H27.0144H27.0232L27.0188 47.9911L25.2114 44.8556L23.3995 41.7245L21.5921 38.589L10.8575 20.0002H7.23828L19.7803 41.7201L21.5921 44.8556L23.3995 47.9911L23.3951 47.9999H23.4039Z" fill="#404040"/>
<path d="M36.0867 32.2873L54.7282 0H51.109L34.2793 29.1518L34.2969 29.187L36.0867 32.2873Z" fill="#404040"/>
<path d="M39.7059 38.5583L61.9666 0H58.3474L37.8984 35.4228L37.916 35.4536L39.7059 38.5583Z" fill="#404040"/>
<path d="M69.205 0H65.5858L41.5176 41.6894L41.5352 41.7246L43.325 44.8249L69.205 0Z" fill="#404040"/>
<path d="M103.941 15.772V32.5H101.757V24.916H93.2371V32.5H91.0531V15.772H93.2371V23.116H101.757V15.772H103.941ZM108.798 17.212C108.382 17.212 108.03 17.068 107.742 16.78C107.454 16.492 107.31 16.14 107.31 15.724C107.31 15.308 107.454 14.956 107.742 14.668C108.03 14.38 108.382 14.236 108.798 14.236C109.198 14.236 109.534 14.38 109.806 14.668C110.094 14.956 110.238 15.308 110.238 15.724C110.238 16.14 110.094 16.492 109.806 16.78C109.534 17.068 109.198 17.212 108.798 17.212ZM109.854 19.348V32.5H107.67V19.348H109.854ZM112.761 25.876C112.761 24.532 113.033 23.356 113.577 22.348C114.121 21.324 114.865 20.532 115.809 19.972C116.769 19.412 117.841 19.132 119.025 19.132C120.049 19.132 121.001 19.372 121.881 19.852C122.761 20.316 123.433 20.932 123.897 21.7V14.74H126.105V32.5H123.897V30.028C123.465 30.812 122.825 31.46 121.977 31.972C121.129 32.468 120.137 32.716 119.001 32.716C117.833 32.716 116.769 32.428 115.809 31.852C114.865 31.276 114.121 30.468 113.577 29.428C113.033 28.388 112.761 27.204 112.761 25.876ZM123.897 25.9C123.897 24.908 123.697 24.044 123.297 23.308C122.897 22.572 122.353 22.012 121.665 21.628C120.993 21.228 120.249 21.028 119.433 21.028C118.617 21.028 117.873 21.22 117.201 21.604C116.529 21.988 115.993 22.548 115.593 23.284C115.193 24.02 114.993 24.884 114.993 25.876C114.993 26.884 115.193 27.764 115.593 28.516C115.993 29.252 116.529 29.82 117.201 30.22C117.873 30.604 118.617 30.796 119.433 30.796C120.249 30.796 120.993 30.604 121.665 30.22C122.353 29.82 122.897 29.252 123.297 28.516C123.697 27.764 123.897 26.892 123.897 25.9ZM141.795 25.42C141.795 25.836 141.771 26.276 141.723 26.74H131.211C131.291 28.036 131.731 29.052 132.531 29.788C133.347 30.508 134.331 30.868 135.483 30.868C136.427 30.868 137.211 30.652 137.835 30.22C138.475 29.772 138.923 29.18 139.179 28.444H141.531C141.179 29.708 140.475 30.74 139.419 31.54C138.363 32.324 137.051 32.716 135.483 32.716C134.235 32.716 133.115 32.436 132.123 31.876C131.147 31.316 130.379 30.524 129.819 29.5C129.259 28.46 128.979 27.26 128.979 25.9C128.979 24.54 129.251 23.348 129.795 22.324C130.339 21.3 131.099 20.516 132.075 19.972C133.067 19.412 134.203 19.132 135.483 19.132C136.731 19.132 137.835 19.404 138.795 19.948C139.755 20.492 140.491 21.244 141.003 22.204C141.531 23.148 141.795 24.22 141.795 25.42ZM139.539 24.964C139.539 24.132 139.355 23.42 138.987 22.828C138.619 22.22 138.115 21.764 137.475 21.46C136.851 21.14 136.155 20.98 135.387 20.98C134.283 20.98 133.339 21.332 132.555 22.036C131.787 22.74 131.347 23.716 131.235 24.964H139.539ZM143.862 25.876C143.862 24.532 144.134 23.356 144.678 22.348C145.222 21.324 145.966 20.532 146.91 19.972C147.87 19.412 148.934 19.132 150.102 19.132C151.254 19.132 152.254 19.38 153.102 19.876C153.95 20.372 154.582 20.996 154.998 21.748V19.348H157.206V32.5H154.998V30.052C154.566 30.82 153.918 31.46 153.054 31.972C152.206 32.468 151.214 32.716 150.078 32.716C148.91 32.716 147.854 32.428 146.91 31.852C145.966 31.276 145.222 30.468 144.678 29.428C144.134 28.388 143.862 27.204 143.862 25.876ZM154.998 25.9C154.998 24.908 154.798 24.044 154.398 23.308C153.998 22.572 153.454 22.012 152.766 21.628C152.094 21.228 151.35 21.028 150.534 21.028C149.718 21.028 148.974 21.22 148.302 21.604C147.63 21.988 147.094 22.548 146.694 23.284C146.294 24.02 146.094 24.884 146.094 25.876C146.094 26.884 146.294 27.764 146.694 28.516C147.094 29.252 147.63 29.82 148.302 30.22C148.974 30.604 149.718 30.796 150.534 30.796C151.35 30.796 152.094 30.604 152.766 30.22C153.454 29.82 153.998 29.252 154.398 28.516C154.798 27.764 154.998 26.892 154.998 25.9ZM178.417 19.348L174.313 32.5H172.057L168.889 22.06L165.721 32.5H163.465L159.337 19.348H161.569L164.593 30.388L167.857 19.348H170.089L173.281 30.412L176.257 19.348H178.417ZM179.768 25.876C179.768 24.532 180.04 23.356 180.584 22.348C181.128 21.324 181.872 20.532 182.816 19.972C183.776 19.412 184.84 19.132 186.008 19.132C187.16 19.132 188.16 19.38 189.008 19.876C189.856 20.372 190.488 20.996 190.904 21.748V19.348H193.112V32.5H190.904V30.052C190.472 30.82 189.824 31.46 188.96 31.972C188.112 32.468 187.12 32.716 185.984 32.716C184.816 32.716 183.76 32.428 182.816 31.852C181.872 31.276 181.128 30.468 180.584 29.428C180.04 28.388 179.768 27.204 179.768 25.876ZM190.904 25.9C190.904 24.908 190.704 24.044 190.304 23.308C189.904 22.572 189.36 22.012 188.672 21.628C188 21.228 187.256 21.028 186.44 21.028C185.624 21.028 184.88 21.22 184.208 21.604C183.536 21.988 183 22.548 182.6 23.284C182.2 24.02 182 24.884 182 25.876C182 26.884 182.2 27.764 182.6 28.516C183 29.252 183.536 29.82 184.208 30.22C184.88 30.604 185.624 30.796 186.44 30.796C187.256 30.796 188 30.604 188.672 30.22C189.36 29.82 189.904 29.252 190.304 28.516C190.704 27.764 190.904 26.892 190.904 25.9ZM208.131 19.348L200.211 38.692H197.955L200.547 32.356L195.243 19.348H197.667L201.795 30.004L205.875 19.348H208.131Z" fill="#404040"/>
</svg>
