<svg width="178" height="48" viewBox="0 0 178 48" fill="none" xmlns="http://www.w3.org/2000/svg">
<path d="M27.5138 6.38818C28.3252 7.52765 28.9813 8.78365 29.4518 10.1303C30.0387 10.208 30.6214 10.3159 31.1869 10.4497C31.2818 10.4713 31.3768 10.4972 31.4717 10.5187C31.4933 10.5231 31.5192 10.5317 31.5408 10.536C31.6616 10.5662 31.7825 10.6007 31.9033 10.6353C31.9033 10.6353 31.9076 10.6353 31.9076 10.6396C32.0242 10.6698 32.1407 10.7043 32.2529 10.7432C32.3522 10.7734 32.4515 10.8036 32.5508 10.8381C32.6543 10.8727 32.7536 10.9072 32.8572 10.9417C32.9522 10.9719 33.0471 11.0065 33.1421 11.0453C33.237 11.0798 33.3277 11.1144 33.4226 11.1532C33.9708 11.3647 34.506 11.6064 35.0239 11.874C35.1491 11.9388 35.2699 11.9992 35.3908 12.0682C35.598 12.1805 35.8008 12.297 36.0037 12.4178C36.09 12.4696 36.1763 12.5214 36.2583 12.5732C36.2972 12.5948 36.3403 12.6207 36.3792 12.6466C36.4698 12.7027 36.5605 12.7631 36.6468 12.8236C36.7331 12.8797 36.8194 12.9358 36.9014 12.9962C37.8942 13.6738 38.8092 14.4594 39.6379 15.3269C39.7371 15.4262 39.8278 15.5255 39.9184 15.6291C39.9961 15.7111 40.0695 15.7974 40.1429 15.8794C40.2637 16.0175 40.3803 16.1556 40.4968 16.2981C40.5702 16.3801 40.6349 16.4664 40.704 16.5527C40.7946 16.6693 40.8853 16.7858 40.9716 16.9023C41.0536 17.0146 41.1356 17.1268 41.2133 17.2347C41.2953 17.3469 41.373 17.4591 41.4507 17.5757C41.606 17.8044 41.7528 18.0332 41.8952 18.2706C41.9686 18.3871 42.0377 18.5079 42.1067 18.6288C42.1758 18.7496 42.2448 18.8705 42.3096 18.9913C42.452 19.2546 42.5901 19.5222 42.7153 19.7898C42.7671 19.8977 42.8189 20.0056 42.8664 20.1135C42.9139 20.2215 42.9613 20.3294 43.0088 20.4373C43.0519 20.5322 43.0908 20.6272 43.1297 20.7264C43.1642 20.8171 43.203 20.9034 43.2376 20.994C43.3239 21.2185 43.4102 21.4472 43.4836 21.676C43.5311 21.8098 43.5742 21.9436 43.6131 22.0774C43.6131 22.0817 43.6174 22.086 43.6174 22.0947C43.6562 22.2241 43.6951 22.3536 43.7296 22.4831C43.8375 22.8543 43.9281 23.2298 44.0101 23.6096C44.0317 23.7046 44.049 23.8039 44.0706 23.8988C44.0792 23.9549 44.0922 24.011 44.1008 24.0628C44.1137 24.1362 44.1267 24.2096 44.1396 24.2873C44.1569 24.3952 44.1742 24.4988 44.1914 24.6067C44.2087 24.7146 44.226 24.8225 44.2389 24.9304C44.2432 24.9779 44.2518 25.0253 44.2562 25.0728C44.2648 25.1505 44.2734 25.2325 44.2821 25.3102C44.2907 25.3879 44.2993 25.4613 44.3036 25.539C44.3166 25.6555 44.3252 25.772 44.3339 25.8886C44.3425 26.0267 44.3511 26.1648 44.3597 26.3029C44.3684 26.4497 44.3727 26.5964 44.377 26.7432C44.3813 26.8899 44.3813 27.0367 44.3813 27.1877C44.3813 36.666 36.6684 44.379 27.1901 44.379C27.0433 44.379 26.8923 44.379 26.7498 44.3746C26.6031 44.3746 26.4563 44.366 26.3096 44.3574C26.1671 44.3531 26.0204 44.3444 25.878 44.3315H25.8607C25.7269 44.3228 25.5931 44.3099 25.4593 44.297C25.3428 44.284 25.2306 44.2711 25.114 44.2581C25.0406 44.2495 24.9716 44.2408 24.8982 44.2322C24.7946 44.2193 24.6953 44.2063 24.5961 44.189C24.5874 44.189 24.5788 44.189 24.5702 44.1847C24.4666 44.1718 24.3673 44.1545 24.268 44.1373C24.1817 44.1243 24.0954 44.107 24.0134 44.0898C23.8882 44.0682 23.7631 44.0423 23.6422 44.0164C22.9732 43.874 22.3128 43.6927 21.6697 43.4726C21.5445 43.4294 21.4194 43.3862 21.2942 43.3388C21.1734 43.2956 21.0525 43.2481 20.9273 43.2006C20.7633 43.1359 20.5993 43.0668 20.4353 42.9978C20.3317 42.9546 20.2281 42.9115 20.1289 42.864C20.0166 42.8165 19.9087 42.7604 19.7965 42.7086C19.6584 42.6395 19.516 42.5748 19.3778 42.5014C19.2656 42.441 19.1491 42.3849 19.0369 42.3202C18.9074 42.2468 18.7779 42.1777 18.6484 42.1043C18.5275 42.0353 18.411 41.9662 18.2902 41.8928C18.2902 41.8928 18.2859 41.8929 18.2815 41.8885C18.0614 41.7591 17.8499 41.6209 17.6384 41.4785C17.6212 41.4699 17.6039 41.4569 17.591 41.444C17.4787 41.3663 17.3665 41.2886 17.2543 41.2109C17.1421 41.1332 17.0298 41.0512 16.9219 40.9692C16.8097 40.8872 16.7018 40.8052 16.5939 40.7189C16.5033 40.6498 16.417 40.5807 16.3306 40.5074C16.1925 40.3951 16.0544 40.2786 15.9163 40.1621C15.8257 40.0844 15.735 40.0024 15.6487 39.9247V39.9204C15.5451 39.8297 15.4458 39.7348 15.3466 39.6398C15.2473 39.5449 15.148 39.4499 15.0487 39.3506C14.8588 39.1607 14.6732 38.9665 14.492 38.768C14.397 38.6601 14.2977 38.5522 14.2071 38.4442C14.0258 38.2371 13.8532 38.0299 13.6848 37.8141C13.5812 37.6846 13.482 37.5508 13.3827 37.417C13.3223 37.3393 13.2662 37.2616 13.2101 37.1796C13.1928 37.1537 13.1712 37.1278 13.1539 37.1019C13.0849 37.0027 13.0158 36.9034 12.9468 36.8041C12.8777 36.7048 12.8173 36.6099 12.7525 36.5106C12.6619 36.3725 12.5713 36.2301 12.4849 36.0876C12.3468 35.8589 12.213 35.6258 12.0835 35.3884C11.8332 34.9352 11.6088 34.4648 11.4016 33.9813C11.3541 33.8734 11.3066 33.7612 11.2635 33.649C11.2635 33.6447 11.2591 33.6404 11.2591 33.6317C11.2246 33.5454 11.1901 33.4634 11.1599 33.3814C11.1297 33.3037 11.0994 33.226 11.0692 33.1483C11.039 33.0663 11.0088 32.9843 10.9829 32.9023C10.9398 32.7858 10.9009 32.6692 10.8621 32.5527C10.8232 32.4362 10.7844 32.3153 10.7498 32.1945C10.7455 32.1858 10.7412 32.1729 10.7412 32.1599C10.7067 32.0477 10.6721 31.9269 10.6376 31.8103C10.6031 31.6852 10.5686 31.56 10.534 31.4348C10.4391 31.055 10.3528 30.6709 10.2837 30.2867C10.2621 30.1572 10.2405 30.0277 10.219 29.8983C10.1974 29.7688 10.1801 29.6393 10.1629 29.5055C8.81621 29.0394 7.55589 28.3833 6.41211 27.5762C6.60634 38.8888 15.8386 48.0002 27.1987 48.0002C38.6797 48.0002 47.9897 38.6946 47.9897 27.2093C47.994 15.7931 38.8523 6.54788 27.5138 6.38818ZM10.0895 25.5433C10.1024 25.4181 10.1154 25.2886 10.1283 25.1634C10.1413 25.0383 10.1585 24.9088 10.1758 24.7836C10.1931 24.6585 10.2103 24.5333 10.2319 24.4081C10.2492 24.283 10.2751 24.1578 10.2966 24.0369C10.3916 23.5406 10.5038 23.0485 10.6376 22.5694C10.6678 22.4529 10.7067 22.3321 10.7412 22.2112C10.7671 22.1206 10.7973 22.0256 10.8275 21.935C10.8362 21.8961 10.8491 21.853 10.8664 21.8184C10.9009 21.7148 10.9354 21.6113 10.9743 21.5077C11.0045 21.417 11.0347 21.3264 11.0736 21.2357C11.0951 21.1796 11.1167 21.1235 11.1383 21.0674C11.216 20.8646 11.2937 20.6703 11.3757 20.4718C11.475 20.243 11.5742 20.0143 11.6865 19.7898C11.7383 19.6819 11.79 19.574 11.8418 19.4704C11.8721 19.4014 11.9109 19.3366 11.9454 19.2676C11.9843 19.1856 12.0274 19.1079 12.0706 19.0302C12.0835 19.0043 12.1008 18.9741 12.1181 18.9482C12.1742 18.8403 12.2346 18.7367 12.295 18.6288C12.3511 18.5338 12.4073 18.4389 12.459 18.3439C12.5108 18.2619 12.5583 18.1799 12.6101 18.1022C12.6576 18.0288 12.7051 17.9555 12.7525 17.8778C12.9511 17.5713 13.1583 17.2692 13.3741 16.98C13.4474 16.8808 13.5208 16.7858 13.5942 16.6865C13.6503 16.6131 13.7064 16.5398 13.7668 16.4664C13.9395 16.2506 14.1165 16.0348 14.3021 15.8276C14.3754 15.7413 14.4531 15.655 14.5308 15.573C14.6948 15.3917 14.8631 15.219 15.0358 15.0464C15.1048 14.9773 15.1739 14.9083 15.2473 14.8392C15.3552 14.7313 15.4674 14.6234 15.5796 14.5241C15.6616 14.4464 15.7436 14.3731 15.83 14.2997C15.981 14.1659 16.1364 14.0364 16.2875 13.9069C16.3652 13.8422 16.4472 13.7774 16.5249 13.7127C16.8702 13.4365 17.2284 13.1732 17.5953 12.9272C17.6988 12.8538 17.8068 12.7847 17.9147 12.7157C18.001 12.6596 18.083 12.6078 18.1693 12.556C18.2341 12.5171 18.2988 12.474 18.3635 12.4394C18.4585 12.379 18.5535 12.3229 18.6527 12.2711C18.7736 12.1977 18.8944 12.133 19.0153 12.0682C19.1361 11.9992 19.2613 11.9344 19.3822 11.874C19.503 11.8093 19.6282 11.7488 19.7533 11.6884C19.762 11.6841 19.7663 11.6841 19.7749 11.6798C19.9951 11.5719 20.2195 11.4726 20.4439 11.3733C20.6123 11.3 20.7806 11.2309 20.9532 11.1662C21.0655 11.1187 21.1777 11.0755 21.2942 11.0367C21.3935 10.9978 21.4971 10.9633 21.5963 10.9288C21.6481 10.9115 21.6999 10.8942 21.7517 10.8727C21.8639 10.8381 21.9762 10.7993 22.0884 10.7648C22.2222 10.7216 22.356 10.6828 22.4941 10.6439C22.6279 10.6051 22.766 10.5662 22.9042 10.5317C23.025 10.5015 23.1458 10.4713 23.2667 10.4411C23.3573 10.4195 23.4523 10.3979 23.5429 10.3806C23.5818 10.372 23.625 10.3634 23.6638 10.3547C23.7329 10.3418 23.8019 10.3288 23.8753 10.3116C23.9961 10.29 24.1213 10.2641 24.2421 10.2425C24.3328 10.2296 24.4191 10.2123 24.5054 10.1993C24.6004 10.1821 24.691 10.1691 24.786 10.1562C25.0277 10.1217 25.2694 10.0914 25.5154 10.0699C24.9112 8.83976 24.0868 7.73051 23.1027 6.78959C14.8847 8.43404 8.41482 14.9169 6.80057 23.1435C7.74581 24.1189 8.85506 24.939 10.0895 25.5433Z" fill="#404040"/>
<path d="M30.0534 12.3701C29.1297 12.1931 28.1802 12.0982 27.2047 12.0982C26.9026 12.0982 26.6005 12.1068 26.307 12.1241C26.5703 13.0909 26.7127 14.1095 26.7127 15.154C26.7127 21.5247 21.529 26.7083 15.1583 26.7083C14.1225 26.7083 13.1168 26.5702 12.1629 26.3113C12.15 26.5961 12.1413 26.8767 12.1413 27.1659C12.1413 28.1543 12.2363 29.1211 12.4219 30.0577C13.311 30.2217 14.2261 30.3037 15.167 30.3037C23.536 30.3037 30.321 23.5187 30.321 15.1497C30.308 14.2045 30.2174 13.2722 30.0534 12.3701ZM15.154 0C6.78499 0 0 6.78499 0 15.154C0 19.2889 1.6574 23.0353 4.33773 25.7674C4.437 24.1143 4.70892 22.4958 5.14917 20.9333C4.16077 19.2328 3.59966 17.256 3.59966 15.154C3.59966 8.78337 8.78337 3.59967 15.154 3.59967C17.2474 3.59967 19.2155 4.15645 20.9075 5.13622C22.4699 4.69166 24.0842 4.41542 25.7372 4.31184C23.0094 1.64445 19.2716 0 15.154 0Z" fill="#404040"/>
<path d="M80.1342 15.772V17.548H75.5742V32.5H73.3902V17.548H68.8062V15.772H80.1342ZM89.3506 19.108C90.3426 19.108 91.2386 19.324 92.0386 19.756C92.8386 20.172 93.4626 20.804 93.9106 21.652C94.3746 22.5 94.6066 23.532 94.6066 24.748V32.5H92.4466V25.06C92.4466 23.748 92.1186 22.748 91.4626 22.06C90.8066 21.356 89.9106 21.004 88.7746 21.004C87.6226 21.004 86.7026 21.364 86.0146 22.084C85.3426 22.804 85.0066 23.852 85.0066 25.228V32.5H82.8226V14.74H85.0066V21.22C85.4386 20.548 86.0306 20.028 86.7826 19.66C87.5506 19.292 88.4066 19.108 89.3506 19.108ZM110.174 25.42C110.174 25.836 110.15 26.276 110.102 26.74H99.5902C99.6702 28.036 100.11 29.052 100.91 29.788C101.726 30.508 102.71 30.868 103.862 30.868C104.806 30.868 105.59 30.652 106.214 30.22C106.854 29.772 107.302 29.18 107.558 28.444H109.91C109.558 29.708 108.854 30.74 107.798 31.54C106.742 32.324 105.43 32.716 103.862 32.716C102.614 32.716 101.494 32.436 100.502 31.876C99.5262 31.316 98.7582 30.524 98.1982 29.5C97.6382 28.46 97.3582 27.26 97.3582 25.9C97.3582 24.54 97.6302 23.348 98.1742 22.324C98.7182 21.3 99.4782 20.516 100.454 19.972C101.446 19.412 102.582 19.132 103.862 19.132C105.11 19.132 106.214 19.404 107.174 19.948C108.134 20.492 108.87 21.244 109.382 22.204C109.91 23.148 110.174 24.22 110.174 25.42ZM107.918 24.964C107.918 24.132 107.734 23.42 107.366 22.828C106.998 22.22 106.494 21.764 105.854 21.46C105.23 21.14 104.534 20.98 103.766 20.98C102.662 20.98 101.718 21.332 100.934 22.036C100.166 22.74 99.7262 23.716 99.6142 24.964H107.918ZM132.607 32.5H130.423L121.639 19.18V32.5H119.455V15.748H121.639L130.423 29.044V15.748H132.607V32.5ZM142.066 32.716C140.834 32.716 139.714 32.436 138.706 31.876C137.714 31.316 136.93 30.524 136.354 29.5C135.794 28.46 135.514 27.26 135.514 25.9C135.514 24.556 135.802 23.372 136.378 22.348C136.97 21.308 137.77 20.516 138.778 19.972C139.786 19.412 140.914 19.132 142.162 19.132C143.41 19.132 144.538 19.412 145.546 19.972C146.554 20.516 147.346 21.3 147.922 22.324C148.514 23.348 148.81 24.54 148.81 25.9C148.81 27.26 148.506 28.46 147.898 29.5C147.306 30.524 146.498 31.316 145.474 31.876C144.45 32.436 143.314 32.716 142.066 32.716ZM142.066 30.796C142.85 30.796 143.586 30.612 144.274 30.244C144.962 29.876 145.514 29.324 145.93 28.588C146.362 27.852 146.578 26.956 146.578 25.9C146.578 24.844 146.37 23.948 145.954 23.212C145.538 22.476 144.994 21.932 144.322 21.58C143.65 21.212 142.922 21.028 142.138 21.028C141.338 21.028 140.602 21.212 139.93 21.58C139.274 21.932 138.746 22.476 138.346 23.212C137.946 23.948 137.746 24.844 137.746 25.9C137.746 26.972 137.938 27.876 138.322 28.612C138.722 29.348 139.25 29.9 139.906 30.268C140.562 30.62 141.282 30.796 142.066 30.796ZM157.418 32.716C156.186 32.716 155.066 32.436 154.058 31.876C153.066 31.316 152.282 30.524 151.706 29.5C151.146 28.46 150.866 27.26 150.866 25.9C150.866 24.556 151.154 23.372 151.73 22.348C152.322 21.308 153.122 20.516 154.13 19.972C155.138 19.412 156.266 19.132 157.514 19.132C158.762 19.132 159.89 19.412 160.898 19.972C161.906 20.516 162.698 21.3 163.274 22.324C163.866 23.348 164.162 24.54 164.162 25.9C164.162 27.26 163.858 28.46 163.25 29.5C162.658 30.524 161.85 31.316 160.826 31.876C159.802 32.436 158.666 32.716 157.418 32.716ZM157.418 30.796C158.202 30.796 158.938 30.612 159.626 30.244C160.314 29.876 160.866 29.324 161.282 28.588C161.714 27.852 161.93 26.956 161.93 25.9C161.93 24.844 161.722 23.948 161.306 23.212C160.89 22.476 160.346 21.932 159.674 21.58C159.002 21.212 158.274 21.028 157.49 21.028C156.69 21.028 155.954 21.212 155.282 21.58C154.626 21.932 154.098 22.476 153.698 23.212C153.298 23.948 153.098 24.844 153.098 25.9C153.098 26.972 153.29 27.876 153.674 28.612C154.074 29.348 154.602 29.9 155.258 30.268C155.914 30.62 156.634 30.796 157.418 30.796ZM174.378 32.5L169.218 26.692V32.5H167.034V14.74H169.218V25.18L174.282 19.348H177.33L171.138 25.9L177.354 32.5H174.378Z" fill="#404040"/>
</svg>
