<svg width="210" height="48" viewBox="0 0 210 48" fill="none" xmlns="http://www.w3.org/2000/svg">
<path d="M22.9627 4.1337C23.0254 4.1337 23.0933 4.13892 23.156 4.14415C23.5271 4.15982 23.8981 4.18073 24.2848 4.21208C26.0251 4.33751 27.7078 4.59358 29.2965 4.96461V0.924985C27.6712 0.512138 25.931 0.235165 24.1228 0.104518C23.4591 0.0522585 22.7536 0.0209038 22.0272 0.00522603C21.8339 1.19728e-07 21.6405 0 21.4419 0C21.4367 0 21.4315 0 21.421 0C18.0242 0 14.5333 0.449428 11.0371 1.33261C7.06544 2.33076 3.26097 3.8724 0 5.79554V45.826C3.18258 44.0858 6.77802 42.6905 10.5145 41.7498C13.4672 41.0077 16.4407 40.5531 19.3516 40.4015H19.3777H19.3881C19.4143 40.4015 19.4404 40.3963 19.4613 40.3963C19.963 40.3702 20.4595 40.3545 20.9716 40.3493V36.2521C17.2142 36.2887 13.3574 36.8009 9.50593 37.7677C8.12107 38.1178 6.77801 38.515 5.51857 38.9435L4.09712 39.4295V37.9244V8.8945V8.21513L4.70855 7.92248C6.9975 6.83026 9.46412 5.94709 12.0353 5.29907C14.5803 4.65629 17.1201 4.26957 19.5867 4.13892C19.639 4.1337 19.6808 4.1337 19.7121 4.1337C20.2818 4.10757 20.8566 4.09189 21.421 4.09189C21.6301 4.09189 21.8339 4.09711 22.0377 4.09711H22.0638C22.3669 4.10757 22.6648 4.11279 22.9627 4.1337Z" fill="#404040"/>
<path d="M33.0708 8.36152C32.1301 8.36152 31.1947 8.33016 30.2958 8.26223C29.2036 8.18384 28.1166 8.05319 27.0714 7.87551C26.4339 7.76577 25.8067 7.64035 25.1953 7.49925V47.0751C27.5992 47.6865 30.2435 48.0001 33.0708 48.0001C36.4624 48.0001 39.9585 47.5506 43.4599 46.6727C47.4263 45.6693 51.2308 44.1329 54.497 42.2097V2.88477C51.3144 4.62499 47.719 6.02031 43.9877 6.96098C40.3139 7.89119 36.6401 8.36152 33.0708 8.36152ZM48.9784 9.04089L50.3999 8.5601V10.0599V39.0951V39.7745L49.7885 40.0671C47.5047 41.1541 45.0381 42.0373 42.4565 42.6853C39.2844 43.4849 36.1279 43.8925 33.076 43.8925C32.1301 43.8925 31.1894 43.8507 30.2801 43.7723L29.2977 43.6887V42.701V42.5912V39.9051L29.3029 39.9103V12.7304V11.5807L30.4474 11.6538C31.2783 11.7061 32.1405 11.7322 33.076 11.7322C36.985 11.7322 40.9933 11.2201 44.9911 10.2115C46.3289 9.88226 47.672 9.48509 48.9784 9.04089Z" fill="#404040"/>
<path d="M81.6481 32.668C80.5441 32.668 79.5521 32.476 78.6721 32.092C77.8081 31.692 77.1281 31.148 76.6321 30.46C76.1361 29.756 75.8801 28.948 75.8641 28.036H78.1921C78.2721 28.82 78.5921 29.484 79.1521 30.028C79.7281 30.556 80.5601 30.82 81.6481 30.82C82.6881 30.82 83.5041 30.564 84.0961 30.052C84.7041 29.524 85.0081 28.852 85.0081 28.036C85.0081 27.396 84.8321 26.876 84.4801 26.476C84.1281 26.076 83.6881 25.772 83.1601 25.564C82.6321 25.356 81.9201 25.132 81.0241 24.892C79.9201 24.604 79.0321 24.316 78.3601 24.028C77.7041 23.74 77.1361 23.292 76.6561 22.684C76.1921 22.06 75.9601 21.228 75.9601 20.188C75.9601 19.276 76.1921 18.468 76.6561 17.764C77.1201 17.06 77.7681 16.516 78.6001 16.132C79.4481 15.748 80.4161 15.556 81.5041 15.556C83.0721 15.556 84.3521 15.948 85.3441 16.732C86.3521 17.516 86.9201 18.556 87.0481 19.852H84.6481C84.5681 19.212 84.2321 18.652 83.6401 18.172C83.0481 17.676 82.2641 17.428 81.2881 17.428C80.3761 17.428 79.6321 17.668 79.0561 18.148C78.4801 18.612 78.1921 19.268 78.1921 20.116C78.1921 20.724 78.3601 21.22 78.6961 21.604C79.0481 21.988 79.4721 22.284 79.9681 22.492C80.4801 22.684 81.1921 22.908 82.1041 23.164C83.2081 23.468 84.0961 23.772 84.7681 24.076C85.4401 24.364 86.0161 24.82 86.4961 25.444C86.9761 26.052 87.2161 26.884 87.2161 27.94C87.2161 28.756 87.0001 29.524 86.5681 30.244C86.1361 30.964 85.4961 31.548 84.6481 31.996C83.8001 32.444 82.8001 32.668 81.6481 32.668ZM102.43 25.42C102.43 25.836 102.406 26.276 102.358 26.74H91.846C91.926 28.036 92.366 29.052 93.166 29.788C93.982 30.508 94.966 30.868 96.118 30.868C97.062 30.868 97.846 30.652 98.47 30.22C99.11 29.772 99.558 29.18 99.814 28.444H102.166C101.814 29.708 101.11 30.74 100.054 31.54C98.998 32.324 97.686 32.716 96.118 32.716C94.87 32.716 93.75 32.436 92.758 31.876C91.782 31.316 91.014 30.524 90.454 29.5C89.894 28.46 89.614 27.26 89.614 25.9C89.614 24.54 89.886 23.348 90.43 22.324C90.974 21.3 91.734 20.516 92.71 19.972C93.702 19.412 94.838 19.132 96.118 19.132C97.366 19.132 98.47 19.404 99.43 19.948C100.39 20.492 101.126 21.244 101.638 22.204C102.166 23.148 102.43 24.22 102.43 25.42ZM100.174 24.964C100.174 24.132 99.99 23.42 99.622 22.828C99.254 22.22 98.75 21.764 98.11 21.46C97.486 21.14 96.79 20.98 96.022 20.98C94.918 20.98 93.974 21.332 93.19 22.036C92.422 22.74 91.982 23.716 91.87 24.964H100.174ZM107.497 21.484C107.881 20.732 108.425 20.148 109.129 19.732C109.849 19.316 110.721 19.108 111.745 19.108V21.364H111.169C108.721 21.364 107.497 22.692 107.497 25.348V32.5H105.313V19.348H107.497V21.484ZM126.266 25.42C126.266 25.836 126.242 26.276 126.194 26.74H115.682C115.762 28.036 116.202 29.052 117.002 29.788C117.818 30.508 118.802 30.868 119.954 30.868C120.898 30.868 121.682 30.652 122.306 30.22C122.946 29.772 123.394 29.18 123.65 28.444H126.002C125.65 29.708 124.946 30.74 123.89 31.54C122.834 32.324 121.522 32.716 119.954 32.716C118.706 32.716 117.586 32.436 116.594 31.876C115.618 31.316 114.85 30.524 114.29 29.5C113.73 28.46 113.45 27.26 113.45 25.9C113.45 24.54 113.722 23.348 114.266 22.324C114.81 21.3 115.57 20.516 116.546 19.972C117.538 19.412 118.674 19.132 119.954 19.132C121.202 19.132 122.306 19.404 123.266 19.948C124.226 20.492 124.962 21.244 125.474 22.204C126.002 23.148 126.266 24.22 126.266 25.42ZM124.01 24.964C124.01 24.132 123.826 23.42 123.458 22.828C123.09 22.22 122.586 21.764 121.946 21.46C121.322 21.14 120.626 20.98 119.858 20.98C118.754 20.98 117.81 21.332 117.026 22.036C116.258 22.74 115.818 23.716 115.706 24.964H124.01ZM135.557 19.108C137.157 19.108 138.453 19.596 139.445 20.572C140.437 21.532 140.933 22.924 140.933 24.748V32.5H138.773V25.06C138.773 23.748 138.445 22.748 137.789 22.06C137.133 21.356 136.237 21.004 135.101 21.004C133.949 21.004 133.029 21.364 132.341 22.084C131.669 22.804 131.333 23.852 131.333 25.228V32.5H129.149V19.348H131.333V21.22C131.765 20.548 132.349 20.028 133.085 19.66C133.837 19.292 134.661 19.108 135.557 19.108ZM143.684 25.876C143.684 24.532 143.956 23.356 144.5 22.348C145.044 21.324 145.788 20.532 146.732 19.972C147.692 19.412 148.764 19.132 149.948 19.132C150.972 19.132 151.924 19.372 152.804 19.852C153.684 20.316 154.356 20.932 154.82 21.7V14.74H157.028V32.5H154.82V30.028C154.388 30.812 153.748 31.46 152.9 31.972C152.052 32.468 151.06 32.716 149.924 32.716C148.756 32.716 147.692 32.428 146.732 31.852C145.788 31.276 145.044 30.468 144.5 29.428C143.956 28.388 143.684 27.204 143.684 25.876ZM154.82 25.9C154.82 24.908 154.62 24.044 154.22 23.308C153.82 22.572 153.276 22.012 152.588 21.628C151.916 21.228 151.172 21.028 150.356 21.028C149.54 21.028 148.796 21.22 148.124 21.604C147.452 21.988 146.916 22.548 146.516 23.284C146.116 24.02 145.916 24.884 145.916 25.876C145.916 26.884 146.116 27.764 146.516 28.516C146.916 29.252 147.452 29.82 148.124 30.22C148.796 30.604 149.54 30.796 150.356 30.796C151.172 30.796 151.916 30.604 152.588 30.22C153.276 29.82 153.82 29.252 154.22 28.516C154.62 27.764 154.82 26.892 154.82 25.9ZM161.847 17.212C161.431 17.212 161.079 17.068 160.791 16.78C160.503 16.492 160.359 16.14 160.359 15.724C160.359 15.308 160.503 14.956 160.791 14.668C161.079 14.38 161.431 14.236 161.847 14.236C162.247 14.236 162.583 14.38 162.855 14.668C163.143 14.956 163.287 15.308 163.287 15.724C163.287 16.14 163.143 16.492 162.855 16.78C162.583 17.068 162.247 17.212 161.847 17.212ZM162.903 19.348V32.5H160.719V19.348H162.903ZM168.809 21.772C169.241 21.02 169.881 20.396 170.729 19.9C171.593 19.388 172.593 19.132 173.729 19.132C174.897 19.132 175.953 19.412 176.897 19.972C177.857 20.532 178.609 21.324 179.153 22.348C179.697 23.356 179.969 24.532 179.969 25.876C179.969 27.204 179.697 28.388 179.153 29.428C178.609 30.468 177.857 31.276 176.897 31.852C175.953 32.428 174.897 32.716 173.729 32.716C172.609 32.716 171.617 32.468 170.753 31.972C169.905 31.46 169.257 30.828 168.809 30.076V38.74H166.625V19.348H168.809V21.772ZM177.737 25.876C177.737 24.884 177.537 24.02 177.137 23.284C176.737 22.548 176.193 21.988 175.505 21.604C174.833 21.22 174.089 21.028 173.273 21.028C172.473 21.028 171.729 21.228 171.041 21.628C170.369 22.012 169.825 22.58 169.409 23.332C169.009 24.068 168.809 24.924 168.809 25.9C168.809 26.892 169.009 27.764 169.409 28.516C169.825 29.252 170.369 29.82 171.041 30.22C171.729 30.604 172.473 30.796 173.273 30.796C174.089 30.796 174.833 30.604 175.505 30.22C176.193 29.82 176.737 29.252 177.137 28.516C177.537 27.764 177.737 26.884 177.737 25.876ZM183.972 17.212C183.556 17.212 183.204 17.068 182.916 16.78C182.628 16.492 182.484 16.14 182.484 15.724C182.484 15.308 182.628 14.956 182.916 14.668C183.204 14.38 183.556 14.236 183.972 14.236C184.372 14.236 184.708 14.38 184.98 14.668C185.268 14.956 185.412 15.308 185.412 15.724C185.412 16.14 185.268 16.492 184.98 16.78C184.708 17.068 184.372 17.212 183.972 17.212ZM185.028 19.348V32.5H182.844V19.348H185.028ZM191.414 21.148V28.9C191.414 29.54 191.55 29.996 191.822 30.268C192.094 30.524 192.566 30.652 193.238 30.652H194.846V32.5H192.878C191.662 32.5 190.75 32.22 190.142 31.66C189.534 31.1 189.23 30.18 189.23 28.9V21.148H187.526V19.348H189.23V16.036H191.414V19.348H194.846V21.148H191.414ZM208.821 19.348L200.901 38.692H198.645L201.237 32.356L195.933 19.348H198.357L202.485 30.004L206.565 19.348H208.821Z" fill="#404040"/>
</svg>
